<svg fill="none" height="208" viewBox="0 0 217 208" width="217" xmlns="http://www.w3.org/2000/svg" xmlns:xlink="http://www.w3.org/1999/xlink"><radialGradient id="a" cx="0" cy="0" gradientTransform="matrix(-.31000599 7.98000073 -5.28675224 -.20537904 155.31 119.52)" gradientUnits="userSpaceOnUse" r="1"><stop offset="0" stop-color="#e8d1ba"/><stop offset="1" stop-color="#d5bfaa"/></radialGradient><radialGradient id="b" cx="0" cy="0" gradientTransform="matrix(-1.99998979 5.50000376 -1.36556776 -.49656722 178.5 80)" gradientUnits="userSpaceOnUse" r="1"><stop offset="0" stop-color="#fff"/><stop offset="1" stop-color="#f6fbfe" stop-opacity=".933333"/></radialGradient><path d="m28.7076 74.0378c4-7.4 27.0924-15.3378 36.7924-17.0378-3.7676-3.559-19.5849-42.9044-21.7924-44.4522-2.2076-1.5478-35.2076 7.4522-35.94004 10.58s12.42414 34.9136 20.94004 50.91z" fill="#45a2e0" stroke="#68e1fd" stroke-linecap="round" stroke-linejoin="round" stroke-width="1.2"/><path d="m78.0076 7.03779c7.2-2.8 15.5-4.3 23.1004-4 .9 0 1 .3.9 1.2-1.4 10.10001-1.2 21.50001.4 29.90001-5.2004-.8-8.9004-.3-14.5004 2.3-1.4.7-3.6 1-4.4-1-2.9-7-5-15.7-6-26.60001-.2-1.1-.2-1.5.5-1.8z" fill="#47cdff" stroke="#68e1fd" stroke-linecap="round" stroke-linejoin="round" stroke-width="1.2"/><path d="m148.308 16.6378c7.3-1.3 28.2-.6 36.4 3 1.4.6 1.1 13.7.2 23.7l-9-.7c.3 7.1.4 14.6.2 20.2-8.4-5-15.7-7.8-25.4-10.1-.9-.3-1.3-.6-1-2 2.8-11.5 1.4-25.1-1.4-34.1z" fill="#c7f0fd" stroke="#68e1fd" stroke-linecap="round" stroke-linejoin="round" stroke-width="1.2"/><path d="m192.5 69.5c5.142 6.0301-1.658 39.78-7.702 42.618 6.7 5.8 11.7 12.4 13 19 6.9-14.4 14.8-34.5002 15.5-44.5002-2.1-3.8-25.94-23.1479-20.798-17.1178z" fill="#45a2e0" stroke="#68e1fd" stroke-linecap="round" stroke-linejoin="round" stroke-width="1.2"/><path d="m200.298 89.6178c4-11.5 6.91-40.88 5.91-41.38-6.5-3.1-20.7-5.2-30.3-5.7.1 14.3-1.2 22.8-4.6 27.5 2.8 3.2 26.49 16.48 28.99 19.58z" fill="#47cdff"/><g stroke-linecap="round" stroke-linejoin="round"><path d="m200.298 89.6178c4-11.5 6.91-40.88 5.91-41.38-6.5-3.1-20.7-5.2-30.3-5.7.1 14.3-1.2 22.8-4.6 27.5 2.8 3.2 26.49 16.48 28.99 19.58" stroke="#68e1fd" stroke-width="1.2"/><path d="m4 117c1.1 5.2 3.4 9.7 8 9.5 1.5 9.5 9 25 17.5 37.5-5 0-9.5-4.8-12-8.5-6.6-9.8-15-28.7-13.5-38.5z" fill="#66b8e8" stroke="#22d2fe" stroke-width=".7"/><path d="m161.298 151.118c4.975 12.551 6.347 20.941 4.5 40 26-19.5 30.3-49.8 21-69-1.5 10-14.5 24-25.5 29z" fill="#68d6fe" stroke="#22d2fe" stroke-width=".7"/><path d="m141.31 181.22c3.5 5.2 4.4 13.5 1.2 15-3.8 1.7-8.9-5.1-10.8-9.4 3.1-2.2 5.8-4.8 8.2-7.9z" fill="#f1d7c2" stroke="#002440" stroke-width=".7"/><path d="m49.91 93.92c-2.2 13 1.3 25.3 11.9 35.8 1.9 1.9 2.2 3.6 1.3 6.2-9 25.8-12.9 50.8 8 59.3 10.9 4.6 21.9 4.6 33.3 3.2 12.7-.4 23.5-2.5 30.3-10.5 19.4-23.5 23.2-59.9 8.7-95.3-10.3-26-30.7-42.7-55.5-38.3-15.9 3-28.6 12.1-35.2 27.1z" fill="#8ce6ff" stroke="#001" stroke-width="1.2"/></g><path d="m52.81 87.82c-1.5-4.1-3.9-9.2-7.9-10-2.5-.5-4.6 2.8-2.6 7.2 1.8 4.1 4.7 8.2 9.1 9.9" fill="#e8d1ba"/><path d="m52.81 87.82c-1.5-4.1-3.9-9.2-7.9-10-2.5-.5-4.6 2.8-2.6 7.2 1.8 4.1 4.7 8.2 9.1 9.9" stroke="#001" stroke-linecap="round" stroke-linejoin="round" stroke-width=".7"/><path d="m45.11 82.72c1.3 2.1 3.7 4.3 5.7 6.2l-.4-3.1-1.4-.7-1.9-3.1c-.7-1-2.8-.7-2 .7z" fill="#b8a39a" stroke="#001" stroke-linecap="round" stroke-linejoin="round" stroke-width=".5"/><path d="m76.71 51.02c-.2-3.6 1.6-4.4 3.6-4.3 4.6.3 7.7 4.1 8.1 7.7l-1.6.6-6.8 1.6c-1.8-1.3-3.1-3-3.3-5.6z" fill="#e8d1ba" stroke="#001" stroke-linecap="round" stroke-linejoin="round" stroke-width=".7"/><path d="m80.11 50.12 4.1 4.6.4-3.1" stroke="#7d6054" stroke-linecap="round" stroke-linejoin="round" stroke-width=".7"/><path d="m101.61 55.72c.5-9.2 8.3-14.7 18.4-12.9 2.6.5 3.7-.4 5.9-.2 4.2.4 6.1 4.7 5.1 7.4.7 1.3 2.3 4.3 2.8 7 1.6 7.8-5 15.9-14.9 16.1-10.5.2-17.9-8.2-17.3-17.4z" fill="#f6fbfe" stroke="#001" stroke-linecap="round" stroke-linejoin="round" stroke-width="1.2"/><path d="m122.327 44.3264c.899-2.2891 8.201-1.891 8.65 3.3839.225 2.09-1.235 3.3839-3.482 3.2843-3.483-.199-6.516-3.5829-5.168-6.6682z" fill="#001"/><path d="m123.749 44.2997c-.251.7997 1.037 1.7809 1.751 1.7003 1 0 1.389-.8943 1.491-1.7003.102-.9673-.274-1.2797-1.632-1.2897-1.359-.01-1.61 1.2897-1.61 1.2897z" fill="#f6fbfe"/><path d="m122.91 85.82 2.8 6.8z" fill="#f1d7c2"/><path d="m119.11 74.82c-2.9-.2-5 3.2-6.2 6.3-1.5 3.4-2.3 7.2.6 10.3 2.2 2.5 5.1 1.8 6.5-1.1 1.002-4.3109 2.363-5.2925 6.2-4.4l1.8-1.4c2.4-2.6.7-7.8-3.4-9.3-1.11-.4163-2.509-.3993-3.829-.3833-.583.007-1.151.0139-1.671-.0167z" fill="#f1d7c2"/><path d="m126.21 85.92c-3.837-.8925-5.198.0891-6.2 4.4l2.3 2.8c1.7 1.7 5.4-.7 5.7-3.4z" fill="#fff"/><path d="m122.91 85.82 2.8 6.8m-5.7-2.3c-1.4 2.9-4.3 3.6-6.5 1.1-2.9-3.1-2.1-6.9-.6-10.3 1.2-3.1 3.3-6.5 6.2-6.3.52.0306 1.088.0237 1.671.0167 1.32-.016 2.719-.033 3.829.3833 4.1 1.5 5.8 6.7 3.4 9.3l-1.8 1.4m-6.2 4.4c1.002-4.3109 2.363-5.2925 6.2-4.4m-6.2 4.4 2.3 2.8c1.7 1.7 5.4-.7 5.7-3.4l-1.8-3.8" stroke="#001" stroke-linecap="round" stroke-linejoin="round" stroke-width=".7"/><path d="m113.61 79.72c1.6-3.1 4.4-5.3 6.3-4.3s2.5 3.5.1 6.2c-2 2.4-4.6 3.1-6.1 2.1-1.3-.9-1.3-2.1-.3-4z" fill="#b8a39a" stroke="#001" stroke-linecap="round" stroke-linejoin="round" stroke-width=".7"/><path d="m150.01 111.52c4.5 2.6 8.6 6.2 10.6 9.1l-3 6.9-5.9-2.7z" fill="url(#a)" stroke="#001" stroke-linecap="round" stroke-linejoin="round" stroke-width=".7"/><path d="m177.21 78.92-22.1 54.5c-1.1 2.8 3.5 4.5 4.3 2.1l21.8-55.4c.9-2.3-2.9-3.7-4-1.2z" fill="#001"/><path d="m175.803 83.5 1.562-4c1.042-2.5 3.345-1.2308 3.345-.08s-1.261 3.2713-2.084 5.3c-.729 1.7-3.449.68-2.823-1.22z" fill="url(#b)" stroke="#001" stroke-linecap="round" stroke-linejoin="round" stroke-width=".5"/><path d="m100.51 129.42c5.7.6 9.1 5.9 9.7 11.1.5 4.6-3.1 5.4-6.9 3-3.1-1.9-5.1-4.9-7.8-6.4-.5-1.8 1.3-7.4 5-7.7z" fill="#f1d7c2" stroke="#001" stroke-linecap="round" stroke-linejoin="round" stroke-width=".7"/><path d="m97 196c1.6839-2.485 7.825-4.345 10.301-.668 2.08 3.18 3.764 7.153 1.882 9.339-2.377 2.883-11.183-3.671-12.183-8.671z" fill="#f1d7c2" stroke="#001" stroke-linecap="round" stroke-linejoin="round" stroke-width=".7"/><path d="m47.69 155.81c1.5-1.8 7.29-.42 8.59 2.38l-.5 6-.5 6.5c-4.5-3-10.29-11.38-7.59-14.88z" fill="#f1d7c2" stroke="#001" stroke-linecap="round" stroke-linejoin="round" stroke-width=".7"/><path d="m67.21 91.42c0 11.2 8.4 19.5 19 19.2 11.4-.3 20.2-9.7 19.9-20.7-.4-11.6-8.8-19.3-19.7-19-10.6.3-19.2 10.1-19.2 20.5z" fill="#f6fbfe" stroke="#001" stroke-linecap="round" stroke-linejoin="round" stroke-width="1.2"/><path d="m75.21 93.42c-.2 4.6 3.2 6.6 5.9 6.1 4.1-.8 5.9-3.8 5.9-6.7-.1-4.2-3.1-5.7-6.2-5.4-3 .3-5.4 2.7-5.6 6z" fill="#001"/><path d="m77.41 92.52c-.2 1.3.6 2 1.3 1.9 1-.2 1.5-1.1 1.6-2.1.1-1.2-.7-1.7-1.6-1.6-.8.1-1.3.9-1.3 1.8z" fill="#f6fbfe"/><path d="m27.11 126.72c10 10 26 16.9 51.2 15.7-2.7 15 5.8 35.5 21.5 43.3-16.7 3.4-36.7 2.2-49.8-3.8-7.8-3.6-10.6-8.1-15-19.6-4.3-11.2-7-22.3-7.9-35.6z" style="fill:#45a2e0;fill-opacity:.5;stroke:#22d2fe;stroke-width:1.2;stroke-linecap:round;stroke-linejoin:round"/><path d="m166.11 153.42c-2.1-.4-3.4 6.5-9.9 9.3-8.2 3.5-18.7 3.6-25.9 2.5 3.4 8.8 1.4 24.4-4.3 34.7-1 1.9 0 3.1 1.8 3.1 9.9.3 23-1.4 31.8-7.6 5.3-7.4 9.3-27.3 7.9-40.3-.1-.9-.6-1.6-1.4-1.7z" style="fill:#66b8e8;fill-opacity:.5;stroke:#22d2fe;stroke-width:1.2;stroke-linecap:round;stroke-linejoin:round"/></svg>