<svg xmlns="http://www.w3.org/2000/svg" viewBox="0 0 1943 1863"><defs><filter id="a"><feGaussianBlur stdDeviation="7"/></filter><style>.a{filter:url(#a)}.b{fill:none;stroke:#00aeff}.b,.c,.d,.e{stroke-miterlimit:10;stroke-width:12px;opacity:.69}.c{fill:#0075de}.c,.d,.e{stroke:#69e4f7}.d{fill:#00adff}.e{fill:#adecf6}.f{fill:#000c24}.g{fill:#f1dbc4}.h{fill:#fafbff}.i{fill:#9fecff}.j{fill:#c3b9b0}</style></defs><g class="a"><path d="M61 187c43 178 96 290 179 454 138-66 129-68 320-121-88-173-122-246-181-419-95 0-169 22-318 86ZM686 41C784 11 853 1 908 8c-11 116-8 185 2 277-81-9-123-1-175 29-35-88-42-159-49-273Z" class="b"/><path d="M364 266c197-92 325-106 425-86-4 159 21 241 57 311a599 599 0 0 1-300 167C440 541 402 415 364 266ZM1371 457c18-146-2-217-22-321 168-14 231 6 327 29 22 162-10 354-34 422a635 635 0 0 0-271-130ZM1689 986c26-117 34-212 32-358 104 23 165 70 215 140-32 180-94 320-140 395-12-60-65-142-107-177Z" class="b"/><path d="M1605 368c10 124 0 255-46 320a443 443 0 0 1 203 263c39-60 110-388 105-523-34-33-175-56-262-60Z" class="b"/></g><path d="M61 187c43 178 96 290 179 454 138-66 129-68 320-121-88-173-122-246-181-419-95 0-169 22-318 86Z" class="c"/><path d="M686 41C784 11 853 1 908 8c-11 116-8 185 2 277-81-9-123-1-175 29-35-88-42-159-49-273Z" class="d"/><path d="M364 266c197-92 325-106 425-86-4 159 21 241 57 311a599 599 0 0 1-300 167C440 541 402 415 364 266ZM1371 457c18-146-2-217-22-321 168-14 231 6 327 29 22 162-10 354-34 422a635 635 0 0 0-271-130Z" class="e"/><path d="M1689 986c26-117 34-212 32-358 104 23 165 70 215 140-32 180-94 320-140 395-12-60-65-142-107-177Z" class="c"/><path d="M1605 368c10 124 0 255-46 320a443 443 0 0 1 203 263c39-60 110-388 105-523-34-33-175-56-262-60Z" class="d"/><path d="M486 1552a234 234 0 0 1-65-72c-12-20-22-52-9-75 12-23 43-14 59 0 5 5 14 13 18 19Z" class="f"/><path d="M483 1437c-11-15-28-34-47-34-16 0-17 20-16 32 1 20 12 39 23 56 11 15 27 30 37 44Z" class="g"/><path d="M1282 1631c19 32 60 118 15 146-21 13-45-3-61-17-8-9-24-27-29-38Z" class="f"/><path d="M1215 1714c15 19 73 89 82 33 1-6 6-24-10-72l-11-30Z" class="g"/><path d="M1350 989c32 14 55 32 71 44 23 19 43 41 48 66 4 21-6 45-29 49-22 5-50 0-66-24Z" class="f"/><path d="M1370 1109c19 10 42 32 65 27 26-4 25-30 15-49a311 311 0 0 0-94-83Z" class="g"/><path d="M1651 711c12-29-37-45-47-19l-201 495q-7 23 16 33 20 7 30-14Z" class="f"/><path d="M1623 752q-20 7-30-9l21-50c16-5 22-1 29 9z" class="h"/><path d="m687 512-6-18-10-30c-4-19-5-42 12-55 20-16 50-7 69 8q28 22 37 57" class="f"/><path d="M778 477c-8-29-29-57-60-64-58-13-35 62-23 91" class="i"/><path d="m735 479-25-20c-7-5-12-17-8-24a14 14 0 0 1 8-7c12-3 27 4 36 16q8 13 11 27l1 8q1 8-6 10c-7 2-8 2-11-2z" class="j"/><path d="M747 482c-8-15-23-30-36-43 12 2 18 10 26 14 2-6-4-10-1-15 13 10 10 31 20 42Z" class="f"/><path d="M911 470c-17-3-33-4-40-4a440 440 0 0 0-83 3 423 423 0 0 0-203 91 435 435 0 0 0-86 95c-12 18-34 56-41 77l-28 100c-9 81 4 164 44 236 20 35 45 63 72 93 13 15 12 27 4 45l-30 75c-59 166-72 381 100 484 85 51 194 62 291 56l81-22c39 0 95-12 121-20q64-21 112-67c153-141 170-384 158-578-5-89-27-181-55-265-33-96-79-194-151-266Z" class="f"/><path d="M1170 614c8 11 26 30 33 41q22 33 41 68a971 971 0 0 1 65 145c66 186 84 397 35 589-23 91-64 189-134 254-60 55-145 78-224 75l-90 24c-31 2-70-1-94-4q-68-6-132-32a278 278 0 0 1-167-191c-23-95-4-194 27-285l24-64c7-18 21-39 15-59-4-18-21-30-32-43a396 396 0 0 1-41-54 362 362 0 0 1-49-131c-4-23-7-69-1-107l21-93c35-81 88-154 164-201 80-50 185-80 279-60Z" class="i"/><path d="M453 843c0 2-5-1-8-1q-7-2-15-8-27-16-43-45-10-15-16-31c-6-16-8-19-8-32 0-18 12-38 31-42 22-6 37 9 50 25q13 14 20 33c5 13 13 25 12 39" class="i"/><path d="M429 838q-29-17-45-46l-15-33q-8-17-9-35c0-19 13-38 32-43 21-5 41 10 55 25q12 16 19 34 10 20 10 41c-15-23-21-50-40-70-14-16-43-33-59-8-12 18 1 49 9 67 7 19 26 46 50 60l16 8c4 5-1 8-6 8q-8-2-17-8" class="f"/><path d="M384 720c6-13 24-16 36-6q21 18 30 45 5 20-3 38-3 6-7 1l-18-19-28-26a29 29 0 0 1-10-15z" class="j"/><path d="M405 717c8 14 21 23 27 37-6 2-13-4-19 2 9 6 21 7 28 15 6 9 4 21 10 33 11-27-17-81-46-87M588 809c0-102 81-190 184-193 105-3 188 86 189 189 1 100-80 188-181 192-106 5-193-84-192-188" class="f"/><path d="M601 809c-2 90 72 168 162 173 98 5 182-80 184-177 1-93-75-173-169-174-95-1-179 82-177 178" class="h"/><path d="M721 887c-32 0-57-25-57-58a57 57 0 0 1 58-57c32 0 56 25 56 59 1 31-25 56-57 56" class="f"/><path d="M683 822q1-18 14-19 13 1 12 13-1 20-14 21-13-2-12-15" class="h"/><path d="M1185 421c-77-91-251-83-279 48-10 72 36 137 102 163 58 24 133 18 177-30 48-50 44-129 0-181" class="f"/><path d="M1093 632c-57 7-119-21-151-70-30-45-32-107 7-148 37-39 101-51 151-30q54 19 85 66 25 39 19 84c-9 54-58 92-111 98" class="h"/><path d="M1175 438c-20 4-42-2-58-15-12-10-23-27-15-43q6-10 19-15t27-2q13 4 25 13 10 9 15 20c5 13 5 31-8 39z" class="f"/><path d="M1132 395c-6-1-13-2-13-12q1-13 16-14 12 0 13 12-1 12-16 14" class="h"/><path d="M961 1747c4 0 11 10 12 12q15 15 23 35 13 22 7 48c-6 21-26 22-44 16-21-7-38-22-54-37-13-12-27-25-34-40q-3-4-5-8 9-50 95-26" class="g"/><path d="M998 1793c7 15 12 34 7 50-6 21-29 24-47 17-21-7-41-22-57-37q-20-18-32-42c-2-4-6-11 0-12 7-2 13 8 16 12l14 18 26 26q15 12 33 20c8 3 19 7 27 3 16-8 7-33 2-45l-20-34c-3-5-10-15-9-20 1-8 14 6 17 8q15 16 23 36" class="f"/><path d="M907 1162c33 4 59 27 77 54 13 20 29 49 17 73-14 25-46 13-65 1-30-18-52-44-81-63 1-32 10-59 52-65" class="g"/><path d="M907 1162q50 8 78 50c13 20 30 55 17 79-13 26-49 15-69 3-29-18-49-48-78-67 10-6 26 9 33 15l33 29c14 12 50 37 68 19 18-19-3-58-14-75-17-26-42-39-68-53" class="f"/><path d="m1157 749 7 37c1 10 3 17-3 25q-4 7-10 11-8 6-17 8c-9 2-10 0-15-4s-8-8-12-13l-7-8-2-4-4-4s0-29 17-40 46-8 46-8" class="h"/><path d="m1160 748 7 38q2 16-6 29l-11 11q-7 5-16 7a21 21 0 0 1-17-3l-11-13-7-9-3-4-2-2 1-2 1-3 1-5 19 22 5 5 4 4 6 1 5-2 4-3-1-4-1-4-5-15-13-29-4-7v-1l2-1 1-1 2 1 5 6 14 26 6 14 3 7v2h1l3-1q3-6 3-11l1-12q-1-14-4-28l-2-9v-1l2-1Z" class="f"/><path d="M1099 656c52-9 108 39 70 88-14 20-33 6-51 18-15 10-14 35-25 49a42 42 0 0 1-51 14c-25-11-34-42-31-67 5-49 39-92 88-102" class="f"/><path d="M1028 735c-6 23-10 50 7 71 14 17 38 19 52 1 11-15 8-37 22-50 12-12 31-6 45-14 19-9 20-33 10-50q-15-24-44-26c-39-6-78 34-92 68" class="g"/><path d="M1108 675c-11-58-89 1-87 40 0 29 33 32 54 22 21-11 38-38 33-62" class="f"/><path d="M1093 705c-8 14-26 30-44 28-19-2-21-22-12-35 9-15 26-36 45-35 22 2 18 29 11 42" class="j"/><g class="a"><path d="M293 980c-100-18-154-97-197-188-30 211 46 470 171 589 76 30 127 37 209 41-116-172-164-287-183-442Z" class="b"/><path d="M689 1282c-85 18-287 11-463-133 20 235 86 387 140 460 94 55 269 109 521 62-143-57-223-282-198-389ZM1181 1488c38 112 13 277-37 359 151 12 296-38 324-86 33-32 61-208 42-370-39 65-172 123-329 97Z" class="b"/><path d="M1458 1360c37 164 21 242-17 385 362-187 298-591 250-640a388 388 0 0 1-233 255ZM80 1140c43 163 76 253 158 333-35-7-45-12-71-33-65-48-179-297-158-385q21 79 71 85Z" class="b"/></g><path d="M293 980c-100-18-154-97-197-188-30 211 46 470 171 589 76 30 127 37 209 41-116-172-164-287-183-442Z" class="e"/><path d="M689 1282c-85 18-287 11-463-133 20 235 86 387 140 460 94 55 269 109 521 62-143-57-223-282-198-389Z" class="d"/><path d="M1181 1488c38 112 13 277-37 359 151 12 296-38 324-86 33-32 61-208 42-370-39 65-172 123-329 97Z" class="c"/><path d="M1458 1360c37 164 21 242-17 385 362-187 298-591 250-640a388 388 0 0 1-233 255Z" class="d"/><path d="M80 1140c43 163 76 253 158 333-35-7-45-12-71-33-65-48-179-297-158-385q21 79 71 85Z" class="c"/></svg>